<?xml version="1.0" standalone="no"?><!DOCTYPE svg PUBLIC "-//W3C//DTD SVG 1.1//EN" "http://www.w3.org/Graphics/SVG/1.1/DTD/svg11.dtd"><svg t="1646548277467" class="icon" viewBox="0 0 1024 1024" version="1.1" xmlns="http://www.w3.org/2000/svg" p-id="1319" xmlns:xlink="http://www.w3.org/1999/xlink" width="256" height="256"><defs><style type="text/css"></style></defs><path d="M213.333333 128h42.666667a42.666667 42.666667 0 0 1 42.666667 42.666667v682.666666a42.666667 42.666667 0 0 1-42.666667 42.666667H213.333333a42.666667 42.666667 0 0 1-42.666666-42.666667V170.666667a42.666667 42.666667 0 0 1 42.666666-42.666667z m213.333334 0h42.666666a42.666667 42.666667 0 0 1 42.666667 42.666667v682.666666a42.666667 42.666667 0 0 1-42.666667 42.666667h-42.666666a42.666667 42.666667 0 0 1-42.666667-42.666667V170.666667a42.666667 42.666667 0 0 1 42.666667-42.666667z" fill="#333303" p-id="1320"></path><path d="M575.04464 167.453229m40.342126-13.890908l40.342126-13.890908q40.342126-13.890908 54.233033 26.451218l222.254527 645.474014q13.890908 40.342126-26.451218 54.233034l-40.342126 13.890908q-40.342126 13.890908-54.233033-26.451218l-222.254527-645.474014q-13.890908-40.342126 26.451218-54.233034Z" fill="#CE1126" p-id="1321"></path></svg>